<svg xmlns="http://www.w3.org/2000/svg"  viewBox="0 0 48 48" width="48px" height="48px"><path fill="#f55376" d="M5,18c0.7,0,1.3,0,2,0c0,4.1,0,8.1,0,12.2c-0.8,0.1-1.6,0.2-2.3,0.3C3.7,28,2,23.7,2,23.7 s0,4.3,0,7.1c0.4,0-0.2,0-2,0.3c0-4.3,0-8.7,0-13c0.8,0,2,0,2,0l3,7.3C5,25.4,5,20.8,5,18z M14.7,20c0-0.6,0-1.4,0-2 c-1.9,0-3.8,0-5.7,0c0,4,0,8,0,12c1.9-0.2,3.8-0.4,5.7-0.6c0-0.6,0-1.4,0-2c-1.2,0.1-2.4,0.1-3.7,0.4c0-1.1,0-1.7,0-2.8 c0.9,0,2.1,0,3,0c0-0.6,0-1.4,0-2c-0.9,0-2.1,0-3,0c0-1.1,0-1.9,0-3C11.6,20.1,14.2,20.1,14.7,20z M16,20c0.1,0,1.9,0,2,0 c0,3.2,0,6,0,9.2c0.7,0,1.3,0,2-0.1c0-3.2,0-5.9,0-9.1c0.7,0,1.3,0,2,0c0-0.6,0-1.4,0-2c-2.1,0-3.9,0-6,0C16,18.6,16,19.4,16,20z M28.6,18c-1.9,0-3.7,0-5.6,0c0,3.8,0,7.2,0,11c0.2,0,0.4,0,0.6,0c0.4,0,0.9,0,1.4,0c0-1.6,0-2.4,0-4c0.1,0,2.4,0,2.7,0 c0-0.6,0-1.4,0-2c-0.3,0-2.6,0-2.7,0c0-1,0-2,0-3c0.2,0,3.1,0,3.6,0C28.6,19.5,28.6,18.6,28.6,18z M32,27.5c0-3.3,0-6.2,0-9.5 c-0.7,0-1.3,0-2,0c0,3.8,0,7.4,0,11.2c1.8,0.1,3.6,0.2,5.4,0.4c0-0.6,0-1.3,0-1.9C34.3,27.6,33.1,27.5,32,27.5z M37,29.7 c0.7,0.1,1.3,0.1,2,0.2c0-4,0-7.9,0-11.9c-0.7,0-1.3,0-2,0C37,22,37,25.8,37,29.7z M45.4,24.2c0.9-2,1.7-4,2.6-6.1 c-0.7,0-1.5,0-2.2,0c-0.5,1.3-0.9,2.2-1.4,3.4c-0.5-1.3-0.8-2.2-1.3-3.4c-0.7,0-1.5,0-2.2,0c0.8,2,1.5,4,2.4,6.1 c-0.9,2-1.7,4-2.6,6c0.7,0.1,1.4,0.2,2.1,0.3c0.5-1.3,1-2.2,1.5-3.5c0.5,1.4,1,2.4,1.5,3.8c0.7,0.1,1.6,0.2,2.3,0.3 C47.1,28.7,46.2,26.3,45.4,24.2z"/></svg>