<svg width="98" height="98" viewBox="0 0 98 98" fill="none" xmlns="http://www.w3.org/2000/svg"><g filter="url(#filter0_d)"><path fill-rule="evenodd" clip-rule="evenodd" d="M88 47c0 21.54-17.46 39-39 39S10 68.54 10 47 27.46 8 49 8s39 17.46 39 39zm-29.44 1.65L47.109 60.17a2.344 2.344 0 01-3.485.221l-.388-.432a1.889 1.889 0 01-.126-2.813c2.792-2.825 5.636-5.68 8.438-8.495a2.564 2.564 0 000-3.604c-1.784-1.818-3.585-3.623-5.378-5.42-1.024-1.027-2.046-2.051-3.06-3.073-.861-.822-.693-1.908.126-2.856l.388-.39a2.349 2.349 0 013.485.21l11.45 11.53a2.47 2.47 0 010 3.604z" fill="#fff"/></g><defs><filter id="filter0_d" x="0" y="0" width="98" height="98" filterUnits="userSpaceOnUse" color-interpolation-filters="sRGB"><feFlood flood-opacity="0" result="BackgroundImageFix"/><feColorMatrix in="SourceAlpha" values="0 0 0 0 0 0 0 0 0 0 0 0 0 0 0 0 0 0 127 0"/><feOffset dy="2"/><feGaussianBlur stdDeviation="5"/><feColorMatrix values="0 0 0 0 0 0 0 0 0 0 0 0 0 0 0 0 0 0 0.188264 0"/><feBlend in2="BackgroundImageFix" result="effect1_dropShadow"/><feBlend in="SourceGraphic" in2="effect1_dropShadow" result="shape"/></filter></defs></svg>